<svg width="24" height="17" viewBox="0 0 24 17" fill="none" xmlns="http://www.w3.org/2000/svg">
<rect x="7.09521" y="1" width="12" height="12" stroke="#1F2449"/>
<path d="M0.0952148 3C3.71142 3 3.45413 5.08716 5.58769 5.08716C7.72125 5.08716 7.53496 3 11.0952 3" stroke="#1F2449"/>
<path d="M0.0952148 6C3.71142 6 3.45413 8.08716 5.58769 8.08716C7.72125 8.08716 7.53496 6 11.0952 6" stroke="#1F2449"/>
<path d="M0.0952148 9C3.71142 9 3.45413 11.0872 5.58769 11.0872C7.72125 11.0872 7.53496 9 11.0952 9" stroke="#1F2449"/>
<path fill-rule="evenodd" clip-rule="evenodd" d="M18.0952 16C20.8566 16 23.0952 13.7614 23.0952 11C23.0952 8.23858 20.8566 6 18.0952 6C15.3338 6 13.0952 8.23858 13.0952 11C13.0952 13.7614 15.3338 16 18.0952 16Z" fill="#FFFDFD" stroke="#1F2449"/>
<path d="M16.0952 9L20.0952 13" stroke="#1F2449" stroke-linecap="square"/>
<path d="M20.0952 9L16.0952 13" stroke="#1F2449" stroke-linecap="square"/>
</svg>
