<svg width="20" height="22" viewBox="0 0 20 22" fill="none" xmlns="http://www.w3.org/2000/svg">
<path fill-rule="evenodd" clip-rule="evenodd" d="M14.812 0.374878C12.235 0.374878 10.146 2.20588 10.146 4.46388C10.146 5.75988 10.836 6.91288 11.91 7.66188C11.711 8.21188 10.458 9.09688 10.458 9.09688C10.458 9.09688 12.607 9.49588 13.359 8.34788C13.816 8.47888 14.304 8.55188 14.812 8.55188C17.389 8.55188 19.478 6.72188 19.478 4.46388C19.478 2.20588 17.389 0.374878 14.812 0.374878Z" stroke="#1F2449" stroke-width="0.75" stroke-linejoin="round"/>
<path d="M6.21243 20.2196C6.06343 18.9946 6.09543 16.6056 4.54043 16.6056C2.97543 16.6056 3.06843 20.2666 3.06843 20.2666" stroke="#1F2449" stroke-width="0.75" stroke-linecap="round" stroke-linejoin="round"/>
<path d="M4.70338 15.0868L4.68138 16.4938" stroke="#1F2449" stroke-width="0.75" stroke-linejoin="round"/>
<path fill-rule="evenodd" clip-rule="evenodd" d="M11.9153 16.7841C11.3113 16.7841 10.8193 17.2761 10.8193 17.8801C10.8193 18.4831 11.3113 18.9751 11.9153 18.9751C12.5193 18.9751 13.0103 18.4831 13.0103 17.8801C13.0103 17.2761 12.5193 16.7841 11.9153 16.7841ZM11.9153 17.5341C12.1053 17.5341 12.2603 17.6891 12.2603 17.8801C12.2603 18.0701 12.1053 18.2251 11.9153 18.2251C11.7243 18.2251 11.5693 18.0701 11.5693 17.8801C11.5693 17.6891 11.7243 17.5341 11.9153 17.5341Z" fill="#1F2449"/>
<path d="M11.8452 15.6864C11.8252 15.7804 11.8302 17.1834 11.8302 17.1834" stroke="#1F2449" stroke-width="0.75" stroke-linejoin="round"/>
<path d="M10.5578 11.0243C9.53779 12.5923 8.28879 13.1683 8.28879 13.1683C6.10679 13.0003 4.77579 9.30129 4.77579 9.30129C4.77579 9.30129 4.46379 9.44529 4.15179 9.39729C3.83979 9.34929 3.57779 8.28729 3.71979 7.98229C3.91179 7.57429 4.55179 7.75829 4.55179 7.75829C4.03979 5.83929 6.34179 5.32829 6.34179 5.32829C10.3638 4.69629 10.0518 3.92029 10.0518 3.92029" stroke="#1F2449" stroke-width="0.75" stroke-linecap="round" stroke-linejoin="round"/>
<path d="M9.68195 3.0907C9.68195 3.0907 4.93995 1.6097 3.81395 5.6987C3.81395 5.6987 3.57695 6.9447 4.16895 7.5367" stroke="#1F2449" stroke-width="0.75" stroke-linecap="round" stroke-linejoin="round"/>
<path d="M6.24461 11.9227C6.24461 11.9227 6.92361 13.8317 5.82961 14.7087C5.82961 14.7087 4.88161 15.3907 2.68761 15.8347C2.68761 15.8347 0.316608 16.1607 0.376608 18.6207L0.402608 20.6267L16.0236 20.6357V18.7387C16.0836 16.2787 13.5646 15.9527 13.5646 15.9527C11.3726 15.5087 10.6306 14.8867 10.6306 14.8867C9.53661 14.0097 9.91961 11.8627 9.91961 11.8627" stroke="#1F2449" stroke-width="0.75" stroke-linejoin="round"/>
<path d="M5.62158 14.7382L8.37858 16.8722L10.6306 14.8862" stroke="#1F2449" stroke-width="0.75"/>
</svg>
