<svg width="127" height="142" viewBox="0 0 127 142" fill="none" xmlns="http://www.w3.org/2000/svg">
<g id="expert medical guidance">
<g id="Group 5 Copy">
<mask id="mask0" mask-type="alpha" maskUnits="userSpaceOnUse" x="0" y="34" width="127" height="107">
<path id="Clip 4" fill-rule="evenodd" clip-rule="evenodd" d="M0.261719 91.4834L98.1225 34.9835L126.423 84.0007L28.5619 140.501L0.261719 91.4834Z" fill="white"/>
</mask>
<g mask="url(#mask0)">
<path id="Fill 3" fill-rule="evenodd" clip-rule="evenodd" d="M98.1113 34.9899C98.202 35.1444 98.2998 35.2904 98.3894 35.4455C113.872 62.2613 104.515 96.6489 77.4923 112.251C50.4681 127.853 16.0107 118.761 0.528519 91.9455C0.438941 91.7904 0.362545 91.6321 0.274092 91.4763L98.1113 34.9899Z" fill="#FFF7E5"/>
</g>
</g>
<path id="Stroke 1" d="M50.9701 24.5191C50.0851 24.4831 48.6191 24.8611 47.9101 24.1821C46.8731 23.1901 48.3661 21.4861 48.7441 20.5091C49.1421 19.4821 49.1871 18.9341 48.9521 17.1041C48.7681 15.6651 48.7001 14.4421 49.0671 13.0391C49.0671 13.0391 49.6221 6.46713 57.2101 8.62413C62.2671 10.0631 64.5561 18.3471 60.5391 27.1051C58.4081 31.7521 56.3951 33.3671 53.1961 36.1701C53.1961 36.1701 52.8401 39.9631 54.3811 41.1491" stroke="#1D2348" stroke-linecap="round" stroke-linejoin="round"/>
<path id="Stroke 3" d="M52.9585 29.8881C52.9585 29.8881 50.1135 34.1551 45.7285 29.4131" stroke="#1E2348" stroke-linecap="round"/>
<path id="Stroke 5" d="M53.4331 18.4557C53.4331 18.4557 55.8031 17.2697 57.7001 18.9307" stroke="#1D2348" stroke-linecap="round" stroke-linejoin="round"/>
<path id="Stroke 7" d="M42.4888 18.849C42.4888 18.849 44.2478 17.71 46.5128 18.732" stroke="#1D2348" stroke-linecap="round" stroke-linejoin="round"/>
<path id="Stroke 9" d="M58.8854 42.3931C62.0304 43.0081 67.3014 42.9261 65.8834 36.5131C63.7704 26.9501 67.8344 24.9101 65.8494 13.9461C63.7034 2.09714 52.5494 -2.57586 41.6674 2.57814C37.2324 4.67813 33.5324 8.88113 34.5864 17.2051C36.1134 29.2621 33.2824 35.9331 28.0674 39.0151C28.0674 39.0151 28.8984 42.1291 40.3354 40.2761" stroke="#1D2348" stroke-linecap="round" stroke-linejoin="round"/>
<path id="Stroke 11" d="M46.9682 43.2358C46.9682 43.2358 40.2122 44.7358 41.3982 47.6278C42.5832 50.5198 45.3092 52.4478 45.9022 53.7338C46.4942 55.0188 52.8112 92.6218 53.2512 95.0808C53.5962 97.0108 52.3362 98.9638 50.3292 98.9478C48.3782 98.9308 46.9732 98.0448 46.9842 95.3388C46.9902 93.5308 58.6402 54.7648 59.0632 52.5278C59.4822 50.3148 60.6002 49.6628 57.2812 50.1988C53.9622 50.7338 49.8142 52.0198 48.2732 49.7698C46.7322 47.5208 48.6282 45.4858 48.0352 43.0218C47.4432 40.5578 46.7952 38.1848 46.7952 38.1848C37.1942 33.9188 38.3942 19.6348 38.3942 19.6348C38.3942 19.6348 38.2192 17.8388 41.3272 16.4788C48.4842 13.3498 47.6392 8.98584 47.6392 8.98584" stroke="#1D2348" stroke-linecap="round" stroke-linejoin="round"/>
<path id="Stroke 13" d="M18.4995 91.6529C18.4995 91.6529 19.0385 71.0339 33.1295 50.9869C33.1295 50.9869 34.7285 48.5869 36.8625 49.5649C38.9965 50.5429 37.8865 52.9619 37.1745 53.6539C35.5735 55.2099 28.9285 62.7799 27.9735 69.8339C26.8165 78.3689 29.0455 83.5309 32.4175 86.5909C35.3075 89.2149 38.6605 88.2819 40.7395 86.3029" stroke="#1E2348" stroke-linecap="round" stroke-linejoin="round"/>
<path id="Stroke 15" d="M24.4165 83.4352C24.4165 83.4352 24.4165 87.3472 27.6165 86.8142C30.8175 86.2812 37.3955 81.7472 38.9965 69.7452C40.3545 59.5542 36.4585 57.8562 34.5435 57.5222" stroke="#1E2348" stroke-linecap="round" stroke-linejoin="round"/>
<path id="Stroke 17" d="M68.9038 47.7573C68.9038 47.7573 74.5838 49.9793 77.2508 56.9133C79.9178 63.8483 85.3678 84.5463 85.3678 84.5463" stroke="#1E2348" stroke-linecap="round" stroke-linejoin="round"/>
<path id="Stroke 19" d="M58.3522 42.3931C57.9012 42.7291 57.1292 45.9481 61.7372 46.8621C66.3442 47.7761 72.0892 50.7111 62.5602 59.2841C62.5602 59.2841 60.3672 60.8181 62.0162 63.1451C63.6642 65.4721 65.4922 67.5561 64.3462 71.6121C63.4872 74.6541 59.6852 82.9141 58.0562 86.3101" stroke="#1E2348" stroke-linecap="round" stroke-linejoin="round"/>
<path id="Stroke 21" d="M67.4858 54.7144C67.4858 54.7144 71.4068 61.7124 72.8578 71.6894" stroke="#1E2348" stroke-linecap="round" stroke-linejoin="round"/>
<path id="Stroke 23" fill-rule="evenodd" clip-rule="evenodd" d="M73.4499 71.9117C74.5959 71.7037 76.6519 72.0577 77.1089 73.9237C77.5079 75.5497 77.2309 77.7097 74.7759 78.3617C72.3209 79.0137 70.3099 77.5777 70.3019 75.8287C70.2929 74.0807 70.7079 72.4097 73.4499 71.9117Z" stroke="#1E2348" stroke-linecap="round" stroke-linejoin="round"/>
</g>
</svg>
