<svg width="21" height="13" viewBox="0 0 21 13" fill="none" xmlns="http://www.w3.org/2000/svg">
<path fill-rule="evenodd" clip-rule="evenodd" d="M5.06104 12.1372H12.327V1.37521H5.06104V12.1372Z" stroke="#1F2449" stroke-width="0.75" stroke-linejoin="round"/>
<path fill-rule="evenodd" clip-rule="evenodd" d="M12.5679 12.1372H19.8339V1.37521H12.5679V12.1372Z" stroke="#1F2449" stroke-width="0.75" stroke-linejoin="round"/>
<path d="M6.44971 3.5014H10.8327" stroke="#1F2449" stroke-width="0.75" stroke-linecap="round" stroke-linejoin="round"/>
<path d="M6.44971 6.6225H10.8327" stroke="#1F2449" stroke-width="0.75" stroke-linecap="round" stroke-linejoin="round"/>
<path d="M7.53467 9.92429H10.7027" stroke="#1F2449" stroke-width="0.75" stroke-linecap="round" stroke-linejoin="round"/>
<path d="M13.9575 9.92429H17.1255" stroke="#1F2449" stroke-width="0.75" stroke-linecap="round" stroke-linejoin="round"/>
<path d="M13.9136 3.5444H18.2966" stroke="#1F2449" stroke-width="0.75" stroke-linecap="round" stroke-linejoin="round"/>
<path d="M13.9136 6.6225H18.2966" stroke="#1F2449" stroke-width="0.75" stroke-linecap="round" stroke-linejoin="round"/>
<path fill-rule="evenodd" clip-rule="evenodd" d="M0.375488 4.4329L5.35649 9.4149L7.22949 9.8619L6.72549 8.0799L3.46549 4.9029L1.31549 5.1399L2.53949 3.8939L1.72749 3.0809L0.375488 4.4329Z" fill="white"/>
<path d="M1.31598 5.14009L2.53998 3.89409L1.72698 3.08109L0.375977 4.43309L5.35598 9.41409L7.22998 9.86209L6.72498 8.07909L3.46498 4.90309" stroke="#1F2449" stroke-width="0.75" stroke-linecap="round" stroke-linejoin="round"/>
</svg>
