<svg width="20" height="19" viewBox="0 0 20 19" fill="none" xmlns="http://www.w3.org/2000/svg">
<path fill-rule="evenodd" clip-rule="evenodd" d="M7.50208 4.4688L6.73008 3.1948L5.45508 2.4218L6.73008 1.6498L7.50208 0.374802L8.27408 1.6498L9.54908 2.4218L8.27408 3.1948L7.50208 4.4688Z" stroke="#1F2449" stroke-width="0.75" stroke-linecap="round" stroke-linejoin="round"/>
<path fill-rule="evenodd" clip-rule="evenodd" d="M2.82248 5.3565C1.81648 4.0785 1.80948 2.3325 2.69048 1.0605C2.36248 1.1875 2.04748 1.3645 1.75548 1.5935C0.185483 2.8295 -0.0855168 5.1035 1.14948 6.6725C2.38548 8.2435 4.65948 8.5145 6.22948 7.2795C6.52048 7.0495 6.76648 6.7845 6.96748 6.4955C5.52448 7.0515 3.82948 6.6355 2.82248 5.3565Z" stroke="#1F2449" stroke-width="0.75" stroke-linecap="round" stroke-linejoin="round"/>
<path fill-rule="evenodd" clip-rule="evenodd" d="M3.56546 12.213L2.64646 11.683L3.56546 12.213Z" fill="white"/>
<path d="M3.56546 12.213L2.64646 11.683" stroke="#1F2449" stroke-width="0.75" stroke-linecap="round" stroke-linejoin="round"/>
<path fill-rule="evenodd" clip-rule="evenodd" d="M8.40527 11.5196L14.0413 9.4366L14.7753 12.0706C14.7753 12.0706 10.6103 13.4586 9.99827 15.4596" fill="white"/>
<path d="M8.40527 11.5196L14.0413 9.4366L14.7753 12.0706C14.7753 12.0706 10.6103 13.4586 9.99827 15.4596" stroke="#1F2449" stroke-width="0.75" stroke-linecap="round" stroke-linejoin="round"/>
<path fill-rule="evenodd" clip-rule="evenodd" d="M17.0419 6.2921L15.8169 8.1901L17.0419 6.2921Z" fill="white"/>
<path d="M17.0419 6.2921L15.8169 8.1901" stroke="#1F2449" stroke-width="0.75" stroke-linecap="round" stroke-linejoin="round"/>
<path fill-rule="evenodd" clip-rule="evenodd" d="M16.9814 9.6612L18.6964 9.2322L16.9814 9.6612Z" fill="white"/>
<path d="M16.9814 9.6612L18.6964 9.2322" stroke="#1F2449" stroke-width="0.75" stroke-linecap="round" stroke-linejoin="round"/>
<path fill-rule="evenodd" clip-rule="evenodd" d="M16.7969 11.5597L18.5729 12.6627L16.7969 11.5597Z" fill="white"/>
<path d="M16.7969 11.5597L18.5729 12.6627" stroke="#1F2449" stroke-width="0.75" stroke-linecap="round" stroke-linejoin="round"/>
<path fill-rule="evenodd" clip-rule="evenodd" d="M6.65913 17.879C4.66113 17.879 3.03613 16.253 3.03613 14.255C3.03613 12.257 4.66113 10.632 6.65913 10.632C8.65713 10.632 10.2821 12.257 10.2821 14.255C10.2821 16.253 8.65713 17.879 6.65913 17.879Z" fill="white"/>
<mask id="mask0" mask-type="alpha" maskUnits="userSpaceOnUse" x="2" y="10" width="9" height="9">
<path fill-rule="evenodd" clip-rule="evenodd" d="M2.66113 10.2569H10.6571V18.2535H2.66113V10.2569Z" fill="white"/>
</mask>
<g mask="url(#mask0)">
<path fill-rule="evenodd" clip-rule="evenodd" d="M6.65913 10.2569C4.45113 10.2569 2.66113 12.0469 2.66113 14.2559C2.66113 16.4629 4.45113 18.2539 6.65913 18.2539C8.86713 18.2539 10.6571 16.4629 10.6571 14.2559C10.6571 12.0469 8.86713 10.2569 6.65913 10.2569ZM6.65913 11.0069C8.45013 11.0069 9.90713 12.4649 9.90713 14.2559C9.90713 16.0469 8.45013 17.5039 6.65913 17.5039C4.86813 17.5039 3.41113 16.0469 3.41113 14.2559C3.41113 12.4649 4.86813 11.0069 6.65913 11.0069Z" fill="#1F2449"/>
</g>
<path fill-rule="evenodd" clip-rule="evenodd" d="M6.58311 15.796C5.69511 15.796 4.95511 15.1 4.89711 14.212C4.86811 13.761 5.01711 13.325 5.31411 12.985C5.61311 12.646 6.02611 12.442 6.47811 12.413L6.58811 12.41C7.47711 12.41 8.21911 13.106 8.27611 13.994C8.30511 14.445 8.15711 14.881 7.85811 15.22C7.56011 15.56 7.14611 15.763 6.69511 15.792L6.58311 15.796Z" fill="white"/>
<path fill-rule="evenodd" clip-rule="evenodd" d="M6.58806 12.0352C6.54406 12.0352 6.49806 12.0362 6.45306 12.0392C5.31406 12.1132 4.44906 13.0972 4.52406 14.2362C4.59406 15.3302 5.50406 16.1712 6.58506 16.1712C6.63006 16.1712 6.67506 16.1692 6.72006 16.1662C7.85906 16.0932 8.72406 15.1092 8.65106 13.9702C8.57906 12.8752 7.67006 12.0352 6.58806 12.0352ZM6.58806 12.7852C7.28006 12.7852 7.85706 13.3262 7.90106 14.0172C7.94806 14.7432 7.39706 15.3712 6.67206 15.4182C6.64306 15.4202 6.61306 15.4212 6.58506 15.4212C5.89406 15.4212 5.31706 14.8792 5.27206 14.1872C5.22506 13.4632 5.77606 12.8352 6.50206 12.7882C6.53006 12.7862 6.56006 12.7852 6.58806 12.7852Z" fill="#1F2449"/>
</svg>
