<svg width="127" height="120" viewBox="0 0 127 120" fill="none" xmlns="http://www.w3.org/2000/svg">
<g id="personalized sleep coaching icon">
<g id="Group 5 Copy">
<mask id="mask0" mask-type="alpha" maskUnits="userSpaceOnUse" x="0" y="13" width="127" height="106">
<path id="Clip 4" fill-rule="evenodd" clip-rule="evenodd" d="M28.8145 13.0771L126.675 69.5771L98.3751 118.594L0.51432 62.0944L28.8145 13.0771Z" fill="white"/>
</mask>
<g mask="url(#mask0)">
<path id="Fill 3" fill-rule="evenodd" clip-rule="evenodd" d="M126.664 69.5704C126.575 69.7262 126.498 69.8839 126.408 70.039C110.926 96.8549 76.4674 105.946 49.4443 90.3442C22.42 74.7417 13.065 40.3549 28.5472 13.539C28.6367 13.3839 28.7356 13.2386 28.8263 13.084L126.664 69.5704Z" fill="#FFF7E5"/>
</g>
</g>
<path id="Stroke 1" d="M89.9935 39.5286L101.276 62.6436L75.8765 71.0086" stroke="#1D2348" stroke-linecap="round" stroke-linejoin="round"/>
<path id="Stroke 2" fill-rule="evenodd" clip-rule="evenodd" d="M75.9381 44.8253L70.2881 46.8253L68.2891 41.1753L73.9391 39.1753L75.9381 44.8253Z" stroke="#1D2348" stroke-linecap="round" stroke-linejoin="round"/>
<path id="Stroke 3" fill-rule="evenodd" clip-rule="evenodd" d="M79.3687 54.5206L73.7187 56.5196L71.7197 50.8696L77.3697 48.8706L79.3687 54.5206Z" stroke="#1D2348" stroke-linecap="round" stroke-linejoin="round"/>
<path id="Stroke 4" fill-rule="evenodd" clip-rule="evenodd" d="M82.7994 64.2149L77.1494 66.2149L75.1494 60.5649L80.8004 58.5649L82.7994 64.2149Z" stroke="#1D2348" stroke-linecap="round" stroke-linejoin="round"/>
<path id="Stroke 5" d="M70.8989 43.0979L73.0089 45.5329L72.9239 39.7849" stroke="#1D2348" stroke-linecap="round" stroke-linejoin="round"/>
<g id="Group 32">
<path id="Stroke 6" d="M116.068 41.1027C113.129 40.5227 107.348 40.7897 104.756 41.1757C102.165 41.5617 98.1981 41.5257 95.9001 40.6047C93.6021 39.6837 91.4901 39.5577 89.9941 39.5287C88.4981 39.4987 85.5851 40.2667 84.9001 40.0227C83.7341 39.6057 82.1471 39.4207 80.2431 38.6207C78.3381 37.8207 78.3801 36.5477 79.1251 35.7477C80.0391 34.7667 80.9891 34.1957 82.5531 34.3537C84.1181 34.5117 90.5551 34.5537 91.3861 33.9497C92.2171 33.3447 92.2021 32.6947 92.2391 31.5237" stroke="#1D2348" stroke-linecap="round" stroke-linejoin="round"/>
<path id="Stroke 8" d="M99.7466 23.3293C100.991 24.2693 102.152 25.1353 102.431 25.3343C103.068 25.7893 107.356 28.0793 108.19 28.5303C108.522 28.7093 109.709 28.9553 111.151 29.1883" stroke="#1D2348" stroke-linecap="round" stroke-linejoin="round"/>
<path id="Stroke 10" d="M89.3729 26.9981C89.3689 26.1701 89.4039 25.9531 89.5619 25.5401C89.3959 26.1911 86.2149 28.7251 85.4629 28.4291C84.7799 28.1601 84.1249 27.0941 83.9189 26.7061C84.4889 27.5951 84.6519 29.0631 84.1369 30.2571C83.9029 30.7971 82.0719 33.2401 81.1169 34.1481C80.9269 34.3301 79.3119 35.6101 77.9819 35.7511C76.6109 35.8951 75.7139 35.0931 75.5249 33.9651C76.1469 33.0181 76.8169 32.1321 77.3269 31.1651C77.9429 29.9961 79.2159 27.6851 79.6739 26.5401C79.9889 25.7561 79.9619 24.3521 81.1589 23.6181C82.3569 22.8851 89.5179 21.3661 90.4829 20.7561C91.4489 20.1441 91.9769 19.2691 92.9609 19.4421C93.9449 19.6151 95.9589 20.2341 96.2419 20.5801C96.3199 20.6761 96.6249 20.9031 97.2619 21.4001" stroke="#1D2348" stroke-linecap="round" stroke-linejoin="round"/>
<path id="Stroke 12" d="M90.0786 33.6553C89.9166 33.0003 89.7256 31.8963 89.5796 30.6963" stroke="#1D2348" stroke-linecap="round" stroke-linejoin="round"/>
<path id="Stroke 14" d="M76.9725 36.0295C76.9725 36.0295 73.6925 38.8685 73.3825 39.1535C72.4655 39.9985 73.3625 41.2835 74.3785 40.8285C75.6835 40.2445 78.8575 37.6805 78.8575 37.6805" stroke="#1D2348" stroke-linecap="round" stroke-linejoin="round"/>
<path id="Stroke 16" d="M83.1079 31.7579L100.995 18.9019C102.67 17.6419 103.407 17.1129 104.28 16.5259C104.893 16.1129 105.66 16.2909 106.025 16.8049C106.361 17.2759 106.333 18.0159 105.792 18.5239C105.178 19.0989 86.0639 33.2309 84.7659 34.0849" stroke="#1D2348" stroke-linecap="round" stroke-linejoin="round"/>
<path id="Stroke 18" d="M100.617 19.3831C100.867 20.2671 101.808 21.2201 102.098 21.3571" stroke="#1D2348" stroke-linecap="round" stroke-linejoin="round"/>
<path id="Stroke 20" fill-rule="evenodd" clip-rule="evenodd" d="M54.9224 17.588C53.5104 12.319 55.7964 6.93103 60.1884 4.17603C59.0084 4.13303 57.8034 4.26103 56.6034 4.58303C50.1344 6.31703 46.2954 12.967 48.0284 19.436C49.7634 25.905 56.4134 29.744 62.8824 28.01C64.0824 27.689 65.1904 27.196 66.1904 26.568C61.0094 26.38 56.3344 22.858 54.9224 17.588Z" stroke="#1D2348" stroke-linecap="round" stroke-linejoin="round"/>
<path id="Stroke 22" fill-rule="evenodd" clip-rule="evenodd" d="M70.899 17.881L68.883 14.559L65.562 12.544L68.883 10.529L70.899 7.20703L72.914 10.529L76.235 12.544L72.914 14.559L70.899 17.881Z" stroke="#1D2348" stroke-linecap="round" stroke-linejoin="round"/>
<path id="Stroke 24" fill-rule="evenodd" clip-rule="evenodd" d="M54.8267 59.7442L53.8187 58.0832L52.1577 57.0752L53.8187 56.0682L54.8267 54.4072L55.8337 56.0682L57.4947 57.0752L55.8337 58.0832L54.8267 59.7442Z" stroke="#1D2348" stroke-linecap="round" stroke-linejoin="round"/>
<path id="Stroke 26" fill-rule="evenodd" clip-rule="evenodd" d="M108.913 58.0315L107.171 55.1585L104.298 53.4165L107.171 51.6745L108.913 48.8015L110.655 51.6745L113.528 53.4165L110.655 55.1585L108.913 58.0315Z" stroke="#1D2348" stroke-linecap="round" stroke-linejoin="round"/>
<path id="Stroke 28" fill-rule="evenodd" clip-rule="evenodd" d="M83.108 6.836L82.1 5.176L80.439 4.168L82.1 3.161L83.108 1.5L84.115 3.161L85.776 4.168L84.115 5.176L83.108 6.836Z" stroke="#1D2348" stroke-linecap="round" stroke-linejoin="round"/>
<path id="Stroke 30" d="M58.7905 38.0255L36.4995 42.9285L48.8885 79.3435L74.4165 71.6475L60.9015 37.4625L77.3265 31.1655" stroke="#1D2348" stroke-linecap="round" stroke-linejoin="round"/>
</g>
</g>
</svg>
