<svg width="113" height="130" viewBox="0 0 113 130" fill="none" xmlns="http://www.w3.org/2000/svg">
<g id="trial prescription icon">
<g id="Group 5">
<mask id="mask0" mask-type="alpha" maskUnits="userSpaceOnUse" x="0" y="72" width="113" height="58">
<path id="Clip 4" fill-rule="evenodd" clip-rule="evenodd" d="M0 72.5103H113V129.111H0V72.5103Z" fill="white"/>
</mask>
<g mask="url(#mask0)">
<path id="Fill 3" fill-rule="evenodd" clip-rule="evenodd" d="M112.987 72.5103C112.988 72.6894 113 72.8647 113 73.0439C113 104.008 87.7036 129.111 56.5 129.111C25.2951 129.111 0 104.008 0 73.0439C0 72.8647 0.0129885 72.6894 0.0142874 72.5103H112.987Z" fill="#FFF7E5"/>
</g>
</g>
<path id="Stroke 1" fill-rule="evenodd" clip-rule="evenodd" d="M74.3598 25.1434C70.3188 17.7074 71.8128 8.75239 77.4378 3.00439C75.6428 3.36839 73.8708 3.99739 72.1778 4.91839C63.0488 9.87939 59.6718 21.3014 64.6328 30.4304C69.5948 39.5584 81.0168 42.9364 90.1448 37.9744C91.8388 37.0544 93.3308 35.9104 94.6118 34.6014C86.7288 36.1964 78.4018 32.5794 74.3598 25.1434Z" stroke="#1D2348" stroke-linecap="round" stroke-linejoin="round"/>
<path id="Stroke 3" fill-rule="evenodd" clip-rule="evenodd" d="M92.4948 17.0565L89.3688 11.9035L84.2168 8.77851L89.3688 5.65251L92.4948 0.499512L95.6198 5.65251L100.773 8.77851L95.6198 11.9035L92.4948 17.0565Z" stroke="#1D2348" stroke-linecap="round" stroke-linejoin="round"/>
<path id="Stroke 5" d="M68.7428 91.1045V70.5005C68.7428 70.5005 68.4377 64.9455 74.6327 64.6105C80.8267 64.2765 85.3947 62.5425 85.3947 60.1605C85.3947 58.2125 85.4418 56.0165 85.4178 54.4235C85.4068 53.7135 84.8288 53.1465 84.1198 53.1465H72.1017C71.3927 53.1465 70.8188 53.7205 70.8188 54.4285V60.3115C70.8188 61.2045 71.5418 61.9295 72.4338 61.9345C72.4338 61.9345 79.8658 61.7905 83.8228 63.9705C88.0148 65.9895 87.5967 70.4605 87.5967 70.4605V84.1405V91.2075H49.4688" stroke="#1E2348" stroke-linecap="round" stroke-linejoin="round"/>
<path id="Fill 7" fill-rule="evenodd" clip-rule="evenodd" d="M78.3696 71.5273C76.5096 71.5273 74.9966 73.0403 74.9966 74.8993C74.9966 74.9283 74.9986 74.9613 75.0016 74.9923C75.0416 75.5063 75.4726 75.9123 75.9976 75.9123H80.7406C81.2656 75.9123 81.6956 75.5083 81.7376 74.9953C81.7406 74.9633 81.7426 74.9293 81.7426 74.8993C81.7426 73.0403 80.2286 71.5273 78.3696 71.5273ZM78.3696 72.5273C79.6806 72.5273 80.7426 73.5893 80.7426 74.8993C80.7426 74.9043 80.7406 74.9083 80.7406 74.9123H75.9976C75.9976 74.9083 75.9966 74.9043 75.9966 74.8993C75.9966 73.5893 77.0586 72.5273 78.3696 72.5273Z" fill="#1E2348"/>
<path id="Fill 9" fill-rule="evenodd" clip-rule="evenodd" d="M44.7761 59.2012C44.6311 59.2012 44.4871 59.2322 44.3531 59.2952C44.1401 59.3942 43.9701 59.5652 43.8721 59.7752C43.8561 59.8082 43.8411 59.8432 43.8301 59.8752C43.1901 61.6132 44.0871 63.5552 45.8321 64.1982C46.2081 64.3362 46.5991 64.4062 46.9981 64.4062C48.4041 64.4062 49.6761 63.5192 50.1631 62.1982C50.1731 62.1702 50.1831 62.1372 50.1921 62.1052C50.3291 61.6092 50.0641 61.0832 49.5731 60.9022L45.1221 59.2632C45.0101 59.2222 44.8931 59.2012 44.7761 59.2012ZM44.7761 60.2012L49.2271 61.8402C49.2261 61.8452 49.2251 61.8482 49.2241 61.8522C48.8711 62.8122 47.9641 63.4062 46.9981 63.4062C46.7251 63.4062 46.4481 63.3592 46.1771 63.2602C44.9481 62.8062 44.3181 61.4432 44.7711 60.2132C44.7721 60.2092 44.7751 60.2052 44.7761 60.2012Z" fill="#1E2348"/>
<path id="Stroke 11" d="M36.602 89.0751C49.251 85.1261 42.065 68.6931 39.664 65.3731C38.667 63.9951 37.8 62.5481 37.746 59.2591C37.702 56.5821 40.194 55.2181 41.797 52.9301C43.401 50.6421 41.941 47.1081 40.184 47.2091C38.588 47.3001 34.308 50.2541 32.582 51.2741C30.43 52.5491 27.66 54.6241 27.532 56.4241C27.454 57.5321 27.221 60.0801 26.83 62.9781C26.716 63.8191 25.599 66.8351 25.025 68.2821C22.989 73.4101 24.766 77.3831 24.908 82.0981C24.909 82.1441 24.911 82.1911 24.912 82.2371C24.912 82.2371 25.92 89.9651 24.93 93.8951C23.939 97.8271 18.116 103.355 17.499 103.672" stroke="#1E2348" stroke-linecap="round" stroke-linejoin="round"/>
<path id="Stroke 13" d="M56.8963 56.4715C59.1663 55.8525 62.3003 58.2405 62.0543 60.3925C61.7963 62.6565 58.0563 64.1735 55.9673 64.7255" stroke="#1E2348" stroke-linecap="round" stroke-linejoin="round"/>
<path id="Stroke 15" d="M47.8922 80.8818C47.8732 79.7618 49.6292 78.3258 51.1542 78.3958C53.2052 78.4888 55.6082 79.6748 56.4732 80.4598C57.4172 81.3178 57.9472 82.2518 56.9552 84.1518C55.9232 86.1228 52.9892 87.2238 50.8442 85.6358C49.1552 84.3858 47.9302 83.0588 47.8922 80.8818" stroke="#1E2348" stroke-linecap="round" stroke-linejoin="round"/>
<path id="Stroke 17" d="M57.7214 71.4315C62.3644 73.8035 58.7374 78.0555 56.1864 78.2615C54.1764 78.4235 52.4184 78.2465 50.8404 76.7475C50.0304 75.9765 50.1434 74.1265 51.3824 73.5155C52.1474 73.1385 53.6324 72.3175 54.1884 71.3385C54.3434 71.0665 54.1284 70.7335 53.8174 70.7025C52.8844 70.6115 51.6604 70.2835 51.0694 69.1305C50.3434 67.7155 52.1324 65.8065 53.4974 64.9355" stroke="#1E2348" stroke-linecap="round" stroke-linejoin="round"/>
<path id="Stroke 19" d="M56.0708 65.0351C57.6518 64.9701 60.6268 64.4261 61.7528 66.2121C63.1908 68.4921 60.8158 70.9151 57.6188 71.3281" stroke="#1E2348" stroke-linecap="round" stroke-linejoin="round"/>
<path id="Stroke 21" d="M43.117 50.7274C43.688 50.8644 44.294 51.0684 44.935 51.3504C51.944 54.4354 57.941 55.0714 59.269 52.4484C60.354 50.3034 61.631 47.9104 62.493 46.1424C62.876 45.3554 62.555 44.4084 61.774 44.0124L48.539 37.3134C47.759 36.9174 46.805 37.2304 46.411 38.0104L43.132 44.4894C42.634 45.4734 43.024 46.6744 44.007 47.1774C44.007 47.1774 52.271 51.1614 55.414 55.7694C58.905 60.3294 55.952 65.0204 55.952 65.0204" stroke="#1E2348" stroke-linecap="round" stroke-linejoin="round"/>
<path id="Stroke 23" d="M33.8318 113.737C33.4238 110.547 35.1988 104.27 37.2438 102.002C39.7818 99.1861 45.2598 96.8821 47.6108 93.9221C49.1058 92.0401 51.1958 87.4481 51.0668 85.7971" stroke="#1E2348" stroke-linecap="round" stroke-linejoin="round"/>
</g>
</svg>
