<svg width="24" height="17" viewBox="0 0 24 17" fill="none" xmlns="http://www.w3.org/2000/svg"><path stroke="#1F2449" d="M7.095 1h12v12h-12z"/><path d="M.095 3c3.616 0 3.36 2.087 5.493 2.087C7.72 5.087 7.535 3 11.095 3m-11 3c3.616 0 3.36 2.087 5.493 2.087C7.72 8.087 7.535 6 11.095 6m-11 3c3.616 0 3.36 2.087 5.493 2.087C7.72 11.087 7.535 9 11.095 9" stroke="#1F2449"/><path fill-rule="evenodd" clip-rule="evenodd" d="M18.095 16a5 5 0 100-10 5 5 0 000 10z" fill="#FFFDFD" stroke="#1F2449"/><path d="M16.095 9l4 4m0-4l-4 4" stroke="#1F2449" stroke-linecap="square"/></svg>