<svg width="20" height="22" viewBox="0 0 20 22" fill="none" xmlns="http://www.w3.org/2000/svg"><path clip-rule="evenodd" d="M14.812.375c-2.577 0-4.666 1.83-4.666 4.089 0 1.296.69 2.449 1.764 3.198-.199.55-1.452 1.435-1.452 1.435s2.149.399 2.901-.75a5.27 5.27 0 001.453.205c2.577 0 4.666-1.83 4.666-4.088S17.389.374 14.812.374z" stroke="#1F2449" stroke-width=".75" stroke-linejoin="round"/><path d="M6.212 20.22c-.149-1.225-.117-3.614-1.672-3.614-1.565 0-1.472 3.66-1.472 3.66" stroke="#1F2449" stroke-width=".75" stroke-linecap="round" stroke-linejoin="round"/><path d="M4.703 15.087l-.022 1.407" stroke="#1F2449" stroke-width=".75" stroke-linejoin="round"/><path fill-rule="evenodd" clip-rule="evenodd" d="M11.915 16.784c-.604 0-1.096.492-1.096 1.096a1.097 1.097 0 101.096-1.096zm0 .75a.346.346 0 11-.002.692.346.346 0 01.002-.692z" fill="#1F2449"/><path d="M11.845 15.686c-.02.094-.015 1.497-.015 1.497" stroke="#1F2449" stroke-width=".75" stroke-linejoin="round"/><path d="M10.558 11.024c-1.02 1.568-2.27 2.144-2.27 2.144C6.108 13 4.777 9.301 4.777 9.301s-.312.144-.624.096c-.312-.048-.574-1.11-.432-1.415.192-.408.832-.224.832-.224-.512-1.919 1.79-2.43 1.79-2.43 4.022-.632 3.71-1.408 3.71-1.408" stroke="#1F2449" stroke-width=".75" stroke-linecap="round" stroke-linejoin="round"/><path d="M9.682 3.09S4.94 1.61 3.814 5.7c0 0-.237 1.246.355 1.838" stroke="#1F2449" stroke-width=".75" stroke-linecap="round" stroke-linejoin="round"/><path d="M6.245 11.923s.679 1.909-.415 2.786c0 0-.948.682-3.142 1.126 0 0-2.371.326-2.311 2.786l.026 2.006 15.62.009v-1.897c.06-2.46-2.458-2.786-2.458-2.786-2.192-.444-2.934-1.066-2.934-1.066-1.094-.877-.711-3.024-.711-3.024" stroke="#1F2449" stroke-width=".75" stroke-linejoin="round"/><path d="M5.622 14.738l2.757 2.134 2.252-1.986" stroke="#1F2449" stroke-width=".75"/></svg>