<svg width="127" height="142" viewBox="0 0 127 142" fill="none" xmlns="http://www.w3.org/2000/svg"><mask id="a" maskUnits="userSpaceOnUse" x="0" y="34" width="127" height="107"><path fill-rule="evenodd" clip-rule="evenodd" d="M.262 91.483l97.86-56.5 28.301 49.018-97.861 56.5-28.3-49.018z" fill="#fff"/></mask><g mask="url(#a)"><path fill-rule="evenodd" clip-rule="evenodd" d="M98.111 34.99c.091.154.189.3.278.456 15.483 26.815 6.126 61.203-20.897 76.805-27.024 15.602-61.481 6.51-76.963-20.306-.09-.155-.166-.313-.255-.469L98.111 34.99z" fill="#FFF7E5"/></g><path d="M50.97 24.52c-.885-.037-2.35.341-3.06-.338-1.037-.992.456-2.696.834-3.673.398-1.027.443-1.575.208-3.405-.184-1.439-.252-2.662.115-4.065 0 0 .555-6.572 8.143-4.415 5.057 1.44 7.346 9.723 3.33 18.481-2.132 4.647-4.145 6.262-7.344 9.065 0 0-.356 3.793 1.185 4.98" stroke="#1D2348" stroke-linecap="round" stroke-linejoin="round"/><path d="M52.959 29.888s-2.846 4.267-7.23-.475" stroke="#1E2348" stroke-linecap="round"/><path d="M53.433 18.456s2.37-1.186 4.267.475m-15.211-.082s1.759-1.139 4.024-.117" stroke="#1D2348" stroke-linecap="round" stroke-linejoin="round"/><path d="M58.885 42.393c3.145.615 8.416.533 6.998-5.88-2.113-9.563 1.951-11.603-.034-22.567C63.703 2.097 52.55-2.576 41.667 2.578c-4.435 2.1-8.135 6.303-7.08 14.627 1.526 12.057-1.305 18.728-6.52 21.81 0 0 .831 3.114 12.268 1.261" stroke="#1D2348" stroke-linecap="round" stroke-linejoin="round"/><path d="M46.968 43.236s-6.756 1.5-5.57 4.392c1.185 2.892 3.911 4.82 4.504 6.106.592 1.285 6.91 38.888 7.35 41.347.344 1.93-.916 3.883-2.923 3.867-1.95-.017-3.356-.903-3.345-3.61.006-1.807 11.656-40.573 12.08-42.81.418-2.213 1.536-2.865-1.783-2.33-3.319.536-7.467 1.822-9.008-.428-1.54-2.25.355-4.284-.238-6.748a184.998 184.998 0 00-1.24-4.837c-9.6-4.266-8.4-18.55-8.4-18.55s-.176-1.796 2.932-3.156c7.157-3.13 6.312-7.493 6.312-7.493" stroke="#1D2348" stroke-linecap="round" stroke-linejoin="round"/><path d="M18.5 91.653s.538-20.62 14.63-40.666c0 0 1.598-2.4 3.732-1.422 2.134.978 1.024 3.397.313 4.089-1.601 1.556-8.246 9.126-9.201 16.18-1.157 8.535 1.072 13.697 4.443 16.757 2.89 2.624 6.243 1.69 8.322-.288" stroke="#1E2348" stroke-linecap="round" stroke-linejoin="round"/><path d="M24.416 83.435s0 3.912 3.2 3.38c3.201-.534 9.78-5.068 11.38-17.07 1.358-10.19-2.538-11.889-4.453-12.223m34.361-9.765s5.68 2.222 8.347 9.156c2.667 6.935 8.117 27.633 8.117 27.633M58.352 42.393c-.45.336-1.223 3.555 3.385 4.47 4.607.913 10.352 3.848.823 12.421 0 0-2.193 1.534-.544 3.861 1.648 2.327 3.476 4.411 2.33 8.467-.859 3.042-4.66 11.302-6.29 14.698m9.43-31.596s3.92 6.998 5.372 16.975" stroke="#1E2348" stroke-linecap="round" stroke-linejoin="round"/><path clip-rule="evenodd" d="M73.45 71.912c1.146-.208 3.202.146 3.659 2.012.399 1.626.122 3.786-2.333 4.438-2.455.652-4.466-.784-4.474-2.533-.01-1.748.406-3.42 3.148-3.917z" stroke="#1E2348" stroke-linecap="round" stroke-linejoin="round"/></svg>