<svg width="21" height="13" viewBox="0 0 21 13" fill="none" xmlns="http://www.w3.org/2000/svg"><path clip-rule="evenodd" d="M5.061 12.137h7.266V1.375H5.061v10.762zm7.507 0h7.266V1.375h-7.266v10.762z" stroke="#1F2449" stroke-width=".75" stroke-linejoin="round"/><path d="M6.45 3.501h4.383M6.45 6.622h4.383M7.535 9.924h3.168m3.254 0h3.168m-3.211-6.38h4.383m-4.383 3.078h4.383" stroke="#1F2449" stroke-width=".75" stroke-linecap="round" stroke-linejoin="round"/><path fill-rule="evenodd" clip-rule="evenodd" d="M.375 4.433l4.981 4.982 1.873.447-.504-1.782-3.26-3.177-2.15.237L2.54 3.894l-.812-.813L.375 4.433z" fill="#fff"/><path d="M1.316 5.14L2.54 3.894l-.813-.813L.376 4.433l4.98 4.981 1.874.448-.505-1.783-3.26-3.176" stroke="#1F2449" stroke-width=".75" stroke-linecap="round" stroke-linejoin="round"/></svg>