<svg width="20" height="19" viewBox="0 0 20 19" fill="none" xmlns="http://www.w3.org/2000/svg"><path clip-rule="evenodd" d="M7.502 4.469L6.73 3.195l-1.275-.773L6.73 1.65 7.502.375l.772 1.275 1.275.772-1.275.773-.772 1.274zm-4.68.887a3.618 3.618 0 01-.132-4.295 3.617 3.617 0 104.277 5.435 3.62 3.62 0 01-4.145-1.14z" stroke="#1F2449" stroke-width=".75" stroke-linecap="round" stroke-linejoin="round"/><path fill-rule="evenodd" clip-rule="evenodd" d="M3.565 12.213l-.919-.53.92.53z" fill="#fff"/><path d="M3.565 12.213l-.919-.53" stroke="#1F2449" stroke-width=".75" stroke-linecap="round" stroke-linejoin="round"/><path fill-rule="evenodd" clip-rule="evenodd" d="M8.405 11.52l5.636-2.083.734 2.634s-4.165 1.388-4.777 3.389" fill="#fff"/><path d="M8.405 11.52l5.636-2.083.734 2.634s-4.165 1.388-4.777 3.389" stroke="#1F2449" stroke-width=".75" stroke-linecap="round" stroke-linejoin="round"/><path fill-rule="evenodd" clip-rule="evenodd" d="M17.042 6.292L15.817 8.19l1.225-1.898z" fill="#fff"/><path d="M17.042 6.292L15.817 8.19" stroke="#1F2449" stroke-width=".75" stroke-linecap="round" stroke-linejoin="round"/><path fill-rule="evenodd" clip-rule="evenodd" d="M16.981 9.661l1.715-.429-1.715.43z" fill="#fff"/><path d="M16.981 9.661l1.715-.429" stroke="#1F2449" stroke-width=".75" stroke-linecap="round" stroke-linejoin="round"/><path fill-rule="evenodd" clip-rule="evenodd" d="M16.797 11.56l1.776 1.103-1.776-1.103z" fill="#fff"/><path d="M16.797 11.56l1.776 1.103" stroke="#1F2449" stroke-width=".75" stroke-linecap="round" stroke-linejoin="round"/><path fill-rule="evenodd" clip-rule="evenodd" d="M6.66 17.879a3.628 3.628 0 01-3.624-3.624 3.627 3.627 0 013.623-3.623 3.627 3.627 0 013.623 3.623 3.628 3.628 0 01-3.623 3.624z" fill="#fff"/><mask id="a" maskUnits="userSpaceOnUse" x="2" y="10" width="9" height="9"><path fill-rule="evenodd" clip-rule="evenodd" d="M2.661 10.257h7.996v7.996H2.661v-7.996z" fill="#fff"/></mask><g mask="url(#a)"><path fill-rule="evenodd" clip-rule="evenodd" d="M6.66 10.257a3.998 3.998 0 100 7.996 3.998 3.998 0 000-7.996zm0 .75a3.252 3.252 0 013.247 3.249 3.252 3.252 0 01-3.248 3.248 3.252 3.252 0 01-3.248-3.248 3.252 3.252 0 013.248-3.25z" fill="#1F2449"/></g><path fill-rule="evenodd" clip-rule="evenodd" d="M6.583 15.796a1.696 1.696 0 01-1.269-2.811 1.687 1.687 0 011.164-.572l.11-.003c.89 0 1.631.696 1.688 1.584.03.451-.119.887-.418 1.226a1.68 1.68 0 01-1.163.572l-.112.004z" fill="#fff"/><path fill-rule="evenodd" clip-rule="evenodd" d="M6.588 12.035a2.067 2.067 0 10-.002 4.134 2.067 2.067 0 00.002-4.134zm0 .75a1.318 1.318 0 01-.003 2.636 1.318 1.318 0 01.003-2.636z" fill="#1F2449"/></svg>