<svg width="127" height="120" viewBox="0 0 127 120" fill="none" xmlns="http://www.w3.org/2000/svg"><mask id="a" maskUnits="userSpaceOnUse" x="0" y="13" width="127" height="106"><path fill-rule="evenodd" clip-rule="evenodd" d="M28.814 13.077l97.861 56.5-28.3 49.017-97.86-56.5 28.3-49.017z" fill="#fff"/></mask><g mask="url(#a)"><path fill-rule="evenodd" clip-rule="evenodd" d="M126.664 69.57c-.089.156-.166.314-.256.469-15.482 26.816-49.94 35.907-76.964 20.305C22.42 74.742 13.065 40.354 28.547 13.54c.09-.155.189-.3.28-.455l97.837 56.486z" fill="#FFF7E5"/></g><path d="M89.993 39.529l11.283 23.115-25.4 8.365" stroke="#1D2348" stroke-linecap="round" stroke-linejoin="round"/><path clip-rule="evenodd" d="M75.938 44.825l-5.65 2-1.999-5.65 5.65-2 2 5.65zm3.431 9.695l-5.65 2-2-5.65 5.65-2 2 5.65zm3.431 9.695l-5.65 2-2-5.65 5.65-2 2 5.65z" stroke="#1D2348" stroke-linecap="round" stroke-linejoin="round"/><path d="M70.899 43.098l2.11 2.435-.085-5.748" stroke="#1D2348" stroke-linecap="round" stroke-linejoin="round"/><g stroke="#1D2348" stroke-linecap="round" stroke-linejoin="round"><path d="M116.068 41.103c-2.939-.58-8.72-.313-11.312.073-2.591.386-6.558.35-8.856-.571-2.298-.921-4.41-1.047-5.906-1.076-1.496-.03-4.409.738-5.094.494-1.166-.417-2.753-.602-4.657-1.402-1.905-.8-1.863-2.073-1.118-2.873.914-.981 1.864-1.552 3.428-1.394 1.565.158 8.002.2 8.833-.404.831-.605.816-1.255.853-2.426m7.508-8.194a216.91 216.91 0 002.684 2.004c.637.455 4.925 2.745 5.759 3.196.332.18 1.519.425 2.961.658"/><path d="M89.373 26.998c-.004-.828.03-1.045.189-1.458-.166.651-3.347 3.185-4.1 2.89-.682-.27-1.337-1.336-1.543-1.724.57.89.733 2.357.218 3.551-.234.54-2.065 2.983-3.02 3.891-.19.182-1.805 1.462-3.135 1.603-1.371.144-2.268-.658-2.457-1.786.622-.947 1.292-1.833 1.802-2.8.616-1.169 1.889-3.48 2.347-4.625.315-.784.288-2.188 1.485-2.922 1.198-.733 8.359-2.252 9.324-2.862.966-.612 1.494-1.487 2.478-1.314.984.173 2.998.792 3.28 1.138.079.096.384.323 1.02.82m-7.182 12.255c-.162-.655-.353-1.759-.5-2.959M76.972 36.03s-3.28 2.838-3.59 3.123c-.916.846-.02 2.13.996 1.675 1.305-.584 4.48-3.148 4.48-3.148"/><path d="M83.108 31.758l17.887-12.856c1.675-1.26 2.412-1.79 3.285-2.376.613-.413 1.38-.235 1.745.279.336.47.308 1.21-.233 1.719-.614.575-19.728 14.707-21.026 15.56m15.851-14.701c.25.884 1.191 1.837 1.481 1.974"/><path clip-rule="evenodd" d="M54.922 17.588c-1.412-5.269.874-10.657 5.266-13.412a12.105 12.105 0 00-3.585.407c-6.469 1.734-10.308 8.384-8.575 14.853 1.735 6.469 8.385 10.308 14.854 8.574 1.2-.321 2.308-.814 3.308-1.442-5.18-.188-9.856-3.71-11.268-8.98zm15.977.293l-2.016-3.322-3.321-2.015 3.321-2.015 2.016-3.322 2.015 3.322 3.321 2.015-3.321 2.015-2.015 3.322zM54.827 59.744l-1.008-1.66-1.661-1.009 1.66-1.007 1.009-1.66 1.007 1.66 1.66 1.007-1.66 1.008-1.007 1.661zm54.086-1.712l-1.742-2.873-2.873-1.742 2.873-1.742 1.742-2.873 1.742 2.873 2.873 1.742-2.873 1.741-1.742 2.873zM83.108 6.836L82.1 5.176l-1.661-1.008L82.1 3.161 83.108 1.5l1.007 1.661 1.661 1.007-1.661 1.008-1.007 1.66z"/><path d="M58.79 38.026L36.5 42.928l12.389 36.416 25.527-7.697-13.514-34.185 16.424-6.297"/></g></svg>