<svg width="21" height="18" viewBox="0 0 21 18" fill="none" xmlns="http://www.w3.org/2000/svg"><path clip-rule="evenodd" d="M19.195 17.37a1.79 1.79 0 11-1.587-3.21 1.79 1.79 0 011.587 3.21z" stroke="#1F2449" stroke-width=".75" stroke-linejoin="round"/><path d="M20.135 16.128l-3.155-.772" stroke="#1F2449" stroke-width=".75" stroke-linejoin="round"/><mask id="a" maskUnits="userSpaceOnUse" x="0" y="0" width="21" height="18"><path fill-rule="evenodd" clip-rule="evenodd" d="M0 17.93h20.568V0H0v17.93z" fill="#fff"/></mask><g mask="url(#a)" clip-rule="evenodd"><path fill-rule="evenodd" d="M1.925 14.972h8.079V5.4h-8.08v9.572z" fill="#fff"/><path d="M1.925 14.972h8.079V5.4h-8.08v9.572z" stroke="#1F2449" stroke-width=".75" stroke-linejoin="round"/><path fill-rule="evenodd" d="M.375 5.225h11.179V.375H.375v4.85z" fill="#fff"/><path d="M.375 5.225h11.179V.375H.375v4.85z" stroke="#1F2449" stroke-width=".75" stroke-linejoin="round"/><path fill-rule="evenodd" d="M6.9 17.083h8.079v-9.57h-8.08v9.57z" fill="#fff"/><path d="M6.9 17.083h8.079v-9.57h-8.08v9.57z" stroke="#1F2449" stroke-width=".75" stroke-linejoin="round"/><path fill-rule="evenodd" d="M5.35 7.337h11.178v-4.85H5.35v4.85z" fill="#fff"/><path d="M5.35 7.337h11.178v-4.85H5.35v4.85z" stroke="#1F2449" stroke-width=".75" stroke-linejoin="round"/></g></svg>