<svg width="113" height="130" viewBox="0 0 113 130" fill="none" xmlns="http://www.w3.org/2000/svg"><mask id="a" maskUnits="userSpaceOnUse" x="0" y="72" width="113" height="58"><path fill-rule="evenodd" clip-rule="evenodd" d="M0 72.51h113v56.601H0v-56.6z" fill="#fff"/></mask><g mask="url(#a)"><path fill-rule="evenodd" clip-rule="evenodd" d="M112.987 72.51c.001.18.013.355.013.534 0 30.964-25.296 56.067-56.5 56.067-31.205 0-56.5-25.103-56.5-56.067 0-.18.013-.355.014-.534h112.973z" fill="#FFF7E5"/></g><path clip-rule="evenodd" d="M74.36 25.143c-4.041-7.436-2.547-16.39 3.078-22.139a18.808 18.808 0 00-5.26 1.914c-9.13 4.961-12.506 16.383-7.545 25.512 4.962 9.128 16.384 12.506 25.512 7.544a18.774 18.774 0 004.467-3.373c-7.883 1.595-16.21-2.022-20.252-9.458zm18.135-8.087l-3.126-5.153-5.152-3.124 5.152-3.126L92.495.5l3.125 5.153 5.153 3.126-5.153 3.124-3.125 5.153z" stroke="#1D2348" stroke-linecap="round" stroke-linejoin="round"/><path d="M68.743 91.105V70.5s-.305-5.555 5.89-5.89c6.194-.334 10.762-2.068 10.762-4.45 0-1.947.047-4.143.023-5.736a1.297 1.297 0 00-1.298-1.277H72.102c-.71 0-1.283.574-1.283 1.282v5.883c0 .893.723 1.617 1.615 1.623 0 0 7.432-.145 11.389 2.035 4.192 2.02 3.774 6.49 3.774 6.49v20.747H49.469" stroke="#1E2348" stroke-linecap="round" stroke-linejoin="round"/><path fill-rule="evenodd" clip-rule="evenodd" d="M78.37 71.527a3.376 3.376 0 00-3.373 3.372 1 1 0 001.001 1.013h4.743a1 1 0 001.002-1.013 3.377 3.377 0 00-3.373-3.372zm0 1a2.372 2.372 0 012.373 2.372l-.002.013h-4.743l-.001-.013a2.372 2.372 0 012.373-2.372zM44.776 59.201a.993.993 0 00-.946.674 3.375 3.375 0 003.168 4.531 3.387 3.387 0 003.165-2.208l.03-.093a1 1 0 00-.62-1.203l-4.45-1.639a1.006 1.006 0 00-.347-.062zm0 1l4.451 1.64c0 .004-.002.007-.003.011a2.372 2.372 0 11-4.453-1.639l.005-.012z" fill="#1E2348"/><path d="M36.602 89.075c12.649-3.949 5.463-20.382 3.062-23.702-.997-1.378-1.864-2.825-1.918-6.114-.044-2.677 2.448-4.04 4.051-6.329 1.604-2.288.144-5.822-1.613-5.72-1.596.09-5.876 3.044-7.602 4.064-2.152 1.275-4.922 3.35-5.05 5.15a115.017 115.017 0 01-.702 6.554c-.114.841-1.231 3.857-1.805 5.304-2.036 5.128-.259 9.101-.117 13.816l.004.14s1.008 7.727.018 11.657c-.991 3.932-6.814 9.46-7.431 9.777m39.397-47.201c2.27-.618 5.404 1.77 5.158 3.922-.258 2.264-3.998 3.78-6.087 4.332m-8.075 16.157c-.019-1.12 1.737-2.556 3.262-2.486 2.051.093 4.454 1.279 5.32 2.064.943.858 1.473 1.792.481 3.692-1.032 1.97-3.966 3.072-6.11 1.484-1.69-1.25-2.915-2.577-2.953-4.754m9.829-9.451c4.643 2.373 1.016 6.624-1.535 6.83-2.01.163-3.768-.014-5.346-1.513-.81-.772-.697-2.622.542-3.233.765-.377 2.25-1.198 2.806-2.177.155-.271-.06-.604-.37-.635-.934-.091-2.158-.42-2.749-1.573-.726-1.414 1.063-3.323 2.428-4.194" stroke="#1E2348" stroke-linecap="round" stroke-linejoin="round"/><path d="M56.07 65.035c1.582-.065 4.557-.609 5.683 1.177 1.438 2.28-.937 4.703-4.134 5.116M43.117 50.727c.571.137 1.177.341 1.818.623 7.009 3.085 13.006 3.721 14.334 1.098 1.085-2.145 2.362-4.538 3.224-6.306a1.602 1.602 0 00-.719-2.13l-13.235-6.699a1.582 1.582 0 00-2.128.697l-3.279 6.48a2.003 2.003 0 00.875 2.687s8.264 3.984 11.407 8.592c3.491 4.56.538 9.251.538 9.251m-22.12 48.717c-.408-3.19 1.367-9.467 3.412-11.735 2.538-2.816 8.016-5.12 10.367-8.08 1.495-1.882 3.585-6.474 3.456-8.125" stroke="#1E2348" stroke-linecap="round" stroke-linejoin="round"/></svg>